<?xml version="1.0" standalone="no"?>
<!DOCTYPE svg PUBLIC "-//W3C//DTD SVG 20010904//EN"
 "http://www.w3.org/TR/2001/REC-SVG-20010904/DTD/svg10.dtd">
<svg version="1.0" xmlns="http://www.w3.org/2000/svg"
 width="32.000000pt" height="32.000000pt" viewBox="0 0 32.000000 32.000000"
 preserveAspectRatio="xMidYMid meet">
<metadata>
Created by potrace 1.16, written by Peter Selinger 2001-2019
</metadata>
<g transform="translate(0.000000,32.000000) scale(0.100000,-0.100000)"
fill="#000000" stroke="none">
<path d="M0 160 l0 -160 160 0 160 0 0 160 0 160 -160 0 -160 0 0 -160z m150
38 l0 -53 25 53 c22 48 27 52 58 52 l34 0 -15 -75 c-15 -67 -19 -75 -39 -75
-20 0 -23 4 -17 28 14 62 13 65 -9 20 -16 -36 -28 -48 -44 -48 -21 0 -23 5
-24 58 l-1 57 -11 -55 c-10 -43 -16 -56 -33 -58 -20 -3 -20 -2 -5 73 l15 75
33 0 33 0 0 -52z"/>
</g>
</svg>
