<?xml version="1.0" standalone="no"?>
<!DOCTYPE svg PUBLIC "-//W3C//DTD SVG 20010904//EN"
 "http://www.w3.org/TR/2001/REC-SVG-20010904/DTD/svg10.dtd">
<svg version="1.0" xmlns="http://www.w3.org/2000/svg"
 width="504.000000pt" height="672.000000pt" viewBox="0 0 504.000000 672.000000"
 preserveAspectRatio="xMidYMid meet">
<metadata>
Created by potrace 1.16, written by Peter Selinger 2001-2019
</metadata>
<g transform="translate(0.000000,672.000000) scale(0.100000,-0.100000)"
fill="#000000" stroke="none">
<path d="M0 5774 l0 -947 43 -47 c75 -82 81 -94 104 -185 36 -140 38 -219 13
-380 -12 -77 -23 -160 -25 -185 -3 -49 -47 -175 -69 -200 -8 -8 -26 -44 -40
-79 -25 -62 -26 -72 -26 -265 l0 -201 33 75 c18 41 53 120 76 175 24 55 47
107 52 115 5 8 12 22 15 30 3 8 14 32 24 52 11 20 20 45 20 55 0 10 11 41 23
68 13 28 41 118 61 200 21 83 42 155 48 162 5 7 6 18 2 24 -4 7 -3 9 3 6 6 -4
13 3 17 16 9 34 7 107 -3 107 -5 0 -12 39 -15 88 -4 48 -9 102 -12 120 -5 31
-4 32 14 21 16 -10 23 -9 37 4 19 20 58 22 73 5 5 -7 13 -43 17 -80 6 -51 4
-74 -8 -97 -9 -18 -11 -33 -6 -37 14 -9 10 -36 -7 -49 -15 -10 -15 -19 -4 -81
38 -204 18 -280 -309 -1163 -170 -458 -151 -362 -150 -750 0 -185 2 -331 4
-326 2 6 29 89 60 185 79 241 243 692 392 1080 69 179 136 363 148 410 51 197
87 321 100 353 7 18 19 81 26 140 l13 107 157 -1 c156 0 158 0 141 -20 -9 -11
-17 -23 -18 -27 -10 -118 -19 -191 -30 -252 -8 -41 -14 -89 -14 -106 0 -17 -3
-34 -7 -38 -4 -4 -8 -13 -8 -19 -1 -22 -27 -121 -55 -207 -15 -47 -53 -165
-85 -262 l-58 -178 -46 0 c-26 0 -75 10 -110 21 -57 20 -64 20 -79 6 -14 -15
-13 -19 18 -44 109 -93 170 -157 164 -175 -3 -10 0 -18 6 -18 6 0 8 -5 4 -12
-5 -8 -2 -9 9 -5 11 4 17 1 17 -9 0 -8 -7 -17 -16 -21 -13 -5 -13 -7 -2 -14
10 -6 9 -11 -7 -23 -26 -20 -41 -20 -25 -1 20 24 -5 17 -28 -8 -15 -15 -26
-47 -33 -88 -11 -66 -38 -150 -50 -159 -4 -3 3 -10 17 -17 22 -10 27 -8 49 22
15 19 23 39 19 49 -5 14 -3 14 17 3 50 -26 50 -27 19 -60 -16 -17 -27 -34 -24
-36 3 -3 8 -1 12 5 4 6 17 16 30 23 17 9 22 9 22 -1 -1 -17 -89 -112 -97 -104
-3 3 2 15 12 26 10 11 15 23 10 28 -4 4 -10 1 -13 -7 -2 -7 -13 -22 -24 -33
-11 -11 -18 -22 -15 -24 7 -8 -20 -78 -32 -82 -17 -6 -2 50 18 67 12 10 13 12
1 7 -8 -3 -22 -9 -31 -12 -22 -8 -39 -42 -44 -85 -2 -19 -16 -67 -30 -108 -14
-40 -25 -83 -25 -94 0 -11 -6 -46 -14 -76 -15 -57 -53 -241 -61 -296 -16 -104
-38 -229 -50 -286 -8 -37 -15 -77 -15 -90 0 -13 -7 -56 -15 -95 -8 -40 -17
-103 -20 -140 -4 -38 -10 -80 -15 -94 -5 -14 -14 -74 -20 -135 -6 -60 -16
-128 -22 -150 -6 -22 -12 -60 -14 -85 -1 -25 -8 -74 -14 -110 -6 -36 -12 -74
-12 -85 -1 -11 -5 -24 -9 -30 -4 -5 -11 -28 -15 -50 -4 -22 -13 -58 -21 -80
-8 -22 -18 -59 -22 -81 l-8 -42 46 24 c25 14 52 31 61 39 9 8 22 15 28 15 7 0
12 4 12 8 0 5 18 16 40 26 22 10 46 24 54 31 15 15 193 97 264 121 24 9 50 13
57 10 7 -2 16 1 18 9 3 7 25 18 49 23 114 28 134 34 153 51 24 22 108 71 121
71 12 0 15 -52 3 -67 -7 -7 -4 -17 10 -30 13 -13 20 -36 24 -78 5 -68 8 -81
25 -111 6 -12 8 -24 5 -28 -8 -7 20 -8 39 -1 10 4 13 16 10 37 -3 21 -1 29 7
24 6 -4 15 3 21 19 9 24 12 25 25 11 19 -18 49 -10 40 12 -3 8 -1 20 4 26 5 6
11 20 13 31 2 11 9 21 16 21 23 3 24 4 12 19 -9 10 -9 19 -2 27 6 7 13 30 17
51 4 21 13 37 21 37 9 0 14 11 14 33 0 23 9 40 30 60 28 27 31 27 52 13 22
-16 22 -16 2 -16 -20 0 -20 -3 -12 -57 5 -31 14 -63 20 -70 6 -8 8 -16 5 -20
-3 -3 7 -29 23 -59 17 -29 30 -62 30 -73 0 -11 5 -23 10 -26 6 -4 8 -14 6 -23
-3 -10 -1 -24 4 -32 7 -11 3 -18 -13 -27 -12 -7 -16 -12 -9 -13 7 0 12 -15 12
-43 0 -23 4 -57 9 -74 6 -22 6 -43 -2 -64 -9 -25 -9 -33 1 -36 6 -3 12 -12 12
-21 -1 -27 -40 28 -40 56 0 13 -6 22 -15 22 -8 0 -17 11 -21 25 -3 13 -13 30
-21 37 -13 11 -13 13 4 20 10 4 -9 5 -41 2 -43 -5 -57 -4 -52 5 4 6 16 11 27
11 27 0 19 24 -9 28 -13 2 -25 -3 -28 -12 -3 -9 -17 -16 -30 -16 -13 0 -24 -4
-24 -10 0 -5 4 -10 9 -10 5 0 7 -9 4 -20 -3 -11 1 -27 8 -36 7 -9 12 -30 10
-47 -3 -29 14 -75 33 -89 6 -4 2 -21 -9 -42 -15 -28 -16 -37 -6 -49 18 -23 -5
-32 -34 -13 -32 21 -38 20 -23 -4 13 -20 24 -20 460 -20 247 0 448 2 448 5 0
13 -26 63 -44 84 -15 17 -17 25 -9 28 21 8 15 22 -7 16 -11 -3 -20 -1 -20 5 0
6 -3 19 -7 29 -5 14 -4 16 8 7 32 -23 89 -4 89 31 0 21 -5 25 -29 25 -16 0
-31 -6 -34 -12 -6 -18 -14 -8 -21 27 -7 35 13 68 43 70 11 1 25 6 33 12 7 6
22 13 33 15 15 3 20 11 20 37 0 29 2 32 25 28 38 -8 65 17 62 57 -2 24 5 46
28 79 17 26 35 49 40 52 13 8 52 -14 45 -25 -7 -11 43 -25 53 -15 4 4 -3 14
-15 22 -19 13 -20 17 -8 41 11 20 12 29 2 41 -10 12 -9 14 8 9 11 -3 29 -9 40
-13 11 -5 -4 15 -32 43 -29 28 -53 55 -53 60 0 6 -7 13 -16 16 -8 3 -12 2 -9
-3 3 -5 0 -13 -6 -17 -6 -4 -15 0 -20 8 -16 28 -57 31 -92 6 -18 -13 -38 -24
-46 -26 -31 -7 -56 -72 -33 -86 4 -2 9 -22 10 -43 3 -48 -29 -95 -161 -234
-26 -27 -47 -56 -47 -63 0 -8 -25 -33 -56 -56 -53 -40 -56 -41 -70 -23 -7 10
-17 29 -20 42 -7 26 -180 368 -195 387 -5 6 -20 43 -34 82 -25 72 -27 115 -6
181 8 26 7 36 -5 48 -8 9 -13 22 -10 30 3 8 6 17 6 19 0 2 6 4 14 4 23 0 37
26 46 87 12 84 38 167 65 207 13 19 21 37 19 39 -7 7 36 146 47 153 19 11 7
57 -40 151 -27 54 -71 161 -99 239 -28 77 -57 156 -65 175 -8 19 -19 57 -25
84 -5 28 -20 93 -32 145 -22 99 -26 164 -11 231 0 3 72 9 159 12 137 5 246 20
419 55 23 5 49 16 58 26 22 22 26 20 19 -8 -3 -13 -1 -27 5 -30 13 -8 54 31
46 44 -4 6 1 10 10 10 16 0 75 57 75 73 0 5 8 21 18 35 10 15 25 43 32 62 8
19 16 37 19 40 10 9 31 45 37 63 16 45 94 19 125 -42 31 -61 93 -150 108 -156
9 -4 20 0 26 9 8 13 13 12 37 -11 22 -21 41 -27 120 -36 156 -17 471 20 609
73 l47 17 -10 -34 c-6 -24 -6 -50 3 -84 10 -38 10 -64 1 -121 -16 -98 -14
-173 4 -231 9 -28 14 -62 10 -80 -3 -18 -8 -70 -10 -117 -4 -85 -14 -130 -62
-288 -15 -46 -24 -91 -21 -101 2 -11 -3 -24 -14 -32 -22 -15 -26 -41 -5 -33
10 4 16 -14 23 -74 12 -89 4 -158 -21 -197 -10 -15 -15 -29 -13 -31 6 -6 -54
-111 -77 -136 -9 -10 -14 -18 -11 -18 3 0 -17 -20 -45 -45 -28 -25 -48 -45
-44 -45 4 0 -5 -9 -20 -21 -19 -15 -25 -27 -21 -40 5 -15 1 -19 -22 -20 -15 0
-22 -3 -15 -6 19 -8 102 20 102 34 0 6 14 24 31 40 17 15 49 47 71 70 35 36
45 41 72 37 29 -5 30 -4 13 9 -18 15 -17 16 3 22 16 5 20 13 17 27 -7 27 22
58 55 58 25 0 27 2 21 30 -5 26 -2 30 15 30 12 0 23 4 26 9 7 11 -29 43 -39
34 -4 -5 -4 3 0 17 5 14 8 47 8 73 -1 49 13 67 38 52 8 -6 7 -10 -5 -17 -14
-8 -14 -11 -2 -24 8 -8 19 -14 24 -14 6 0 22 -14 37 -32 22 -26 24 -33 12 -40
-10 -5 -13 -16 -9 -31 15 -50 61 -94 49 -46 -3 13 -1 19 6 16 7 -2 12 -21 13
-43 1 -61 3 -74 14 -74 6 0 11 8 11 18 1 9 9 -14 18 -51 9 -38 23 -72 31 -77
13 -8 12 -10 -2 -10 -11 0 -18 -8 -18 -20 0 -23 25 -27 34 -5 3 8 11 15 18 14
10 0 10 -2 1 -6 -7 -2 -13 -9 -13 -14 0 -14 28 -11 32 3 5 14 49 -16 121 -79
23 -20 48 -33 65 -33 21 0 28 -5 29 -20 1 -12 -4 -20 -15 -20 -26 0 0 -19 37
-26 31 -7 33 -6 22 14 -9 17 -8 22 8 27 19 6 51 -3 51 -14 0 -4 -5 -12 -11
-18 -18 -18 -3 -30 30 -25 18 2 28 9 24 15 -4 6 4 7 23 2 16 -5 43 -9 60 -10
17 -1 36 -5 43 -9 7 -5 10 -2 9 6 -2 10 10 12 52 10 107 -6 300 -73 300 -104
0 -13 -8 -18 -25 -18 -26 0 -35 -18 -12 -24 6 -3 31 -7 55 -9 43 -5 59 6 22
16 -28 7 -25 27 3 27 27 0 74 -44 58 -55 -19 -11 -12 -22 16 -28 36 -7 47 1
31 21 -11 13 -10 14 17 8 17 -4 37 -16 45 -26 10 -12 31 -20 60 -22 34 -2 46
-7 48 -21 3 -15 -2 -17 -37 -11 -27 4 -41 3 -41 -5 0 -14 45 -25 67 -16 10 4
30 7 46 6 l27 -3 0 3026 0 3026 -2520 0 -2520 0 0 -946z m1695 -2114 c-3 -5
-22 -14 -43 -20 -52 -17 -66 -34 -22 -26 19 3 42 1 50 -4 13 -8 12 -10 -3 -10
-15 0 -16 -3 -5 -22 19 -34 26 -37 92 -33 77 4 53 -6 -89 -40 -199 -47 -364
-116 -463 -194 l-52 -41 0 44 c0 73 28 143 74 183 82 70 249 150 339 160 26 3
47 10 47 16 0 5 13 7 30 3 23 -4 29 -3 24 7 -5 8 -2 7 9 -2 9 -7 15 -17 12
-21z m-1190 -62 c-3 -34 -10 -65 -16 -68 -5 -4 -7 -14 -4 -22 4 -9 -1 -18 -11
-22 -12 -5 -15 -14 -11 -39 3 -17 3 -26 0 -19 -7 18 -23 14 -23 -6 0 -11 -8
-34 -17 -53 -10 -19 -17 -54 -17 -79 0 -25 -2 -37 -4 -27 -2 9 -8 17 -14 17
-6 0 -8 -3 -5 -7 4 -3 0 -17 -9 -31 -13 -19 -14 -29 -4 -52 10 -23 8 -37 -10
-81 -12 -30 -26 -62 -31 -71 -5 -10 -9 -23 -9 -30 0 -7 -10 -24 -21 -38 l-21
-25 16 27 c9 15 16 36 16 48 0 11 4 20 10 20 5 0 7 6 4 14 -3 8 -1 17 5 21 6
3 11 13 11 21 0 14 -2 14 -15 0 -8 -8 -15 -21 -15 -30 0 -8 -5 -18 -10 -21 -6
-4 -8 -10 -6 -14 3 -4 -3 -21 -13 -38 -10 -16 -22 -44 -25 -61 -4 -17 -14 -36
-22 -43 -8 -6 -14 -22 -14 -35 0 -12 -5 -26 -11 -29 -6 -4 -8 -14 -4 -23 3 -9
3 -13 -1 -9 -11 11 -46 -36 -41 -55 3 -9 -1 -22 -9 -29 -10 -8 -14 -8 -14 0 0
6 4 11 10 11 5 0 7 7 4 15 -6 14 0 33 26 100 4 11 15 43 25 70 9 28 20 59 25
70 4 11 16 43 25 70 10 28 33 88 51 135 18 47 53 139 78 205 42 110 116 274
124 275 2 0 1 -28 -3 -62z m2593 -400 c2 -10 -4 -36 -14 -58 -17 -39 -19 -40
-66 -40 -27 0 -57 5 -67 12 -26 16 -58 -7 -40 -28 15 -18 -7 -18 -40 0 -16 9
-46 12 -90 9 -55 -4 -70 -9 -87 -30 -11 -13 -27 -25 -35 -27 -8 -1 -24 -7 -35
-14 -12 -6 -24 -8 -28 -5 -9 9 -8 35 2 30 11 -7 52 11 52 23 0 6 -6 8 -12 4
-7 -4 -4 3 7 15 11 13 19 25 18 27 -7 10 -2 22 12 28 35 13 318 67 329 63 7
-3 19 -1 27 4 22 14 63 6 67 -13z m-882 -108 c37 -14 53 -38 54 -77 0 -32 -1
-33 -42 -33 -24 0 -52 7 -62 15 -21 16 -71 21 -62 6 7 -10 -43 -25 -52 -16 -4
3 0 10 8 15 10 7 11 10 3 10 -7 0 -22 -9 -33 -20 -11 -11 -30 -20 -42 -21 -22
0 -22 -1 -3 -8 18 -7 17 -9 -12 -24 -18 -10 -35 -17 -38 -17 -3 0 -4 20 -1 45
2 25 -1 45 -6 45 -13 0 -27 44 -18 54 5 5 26 10 47 12 21 1 58 7 83 12 63 13
143 14 176 2z m1187 -114 c19 -5 27 -13 27 -28 0 -12 6 -29 14 -37 7 -9 17
-37 20 -63 8 -54 10 -52 -94 -87 -80 -28 -300 -61 -400 -61 -41 0 -104 5 -140
10 -69 10 -92 27 -139 104 l-24 39 26 -18 c16 -10 27 -13 27 -6 0 6 -4 11 -10
11 -5 0 -10 3 -10 8 0 11 51 32 78 32 21 0 23 -4 18 -24 -5 -20 -3 -23 14 -19
12 3 22 -1 26 -11 4 -9 18 -16 34 -16 16 0 31 -3 33 -7 3 -5 37 -8 76 -7 50 0
76 5 89 17 10 10 27 14 39 11 17 -5 22 -1 25 18 2 12 10 23 18 24 8 0 32 8 52
17 21 9 49 17 62 17 18 0 30 9 41 30 9 17 12 30 8 30 -5 1 3 7 16 14 14 8 30
12 35 11 6 -2 23 -6 39 -9z m-1591 -245 c22 2 32 -1 31 -9 -2 -7 1 -12 6 -12
5 0 14 -13 19 -29 9 -25 17 -31 59 -37 37 -5 44 -9 28 -15 -20 -8 -20 -8 0 -9
21 -2 -13 -13 -92 -30 -40 -9 -192 -15 -275 -12 -45 2 -90 38 -67 53 9 5 10 9
2 9 -19 0 -3 37 21 48 12 5 48 15 79 22 31 6 57 15 57 20 0 5 19 15 43 23 39
13 42 13 49 -5 6 -15 16 -19 40 -17z m-1132 -476 c5 -3 10 -15 10 -25 0 -11 5
-30 11 -44 9 -20 18 -24 53 -24 64 1 66 0 66 -27 0 -22 -9 -30 -32 -26 -5 0
-8 -8 -8 -19 0 -11 5 -20 11 -20 6 0 9 -9 6 -20 -3 -11 -2 -20 2 -20 10 0 1
-59 -10 -66 -5 -3 -9 -14 -9 -25 0 -15 -7 -19 -32 -20 l-33 -1 30 -7 c28 -6
30 -9 33 -59 4 -78 -22 -105 -54 -56 -13 20 -18 52 -20 136 -2 90 -5 113 -18
120 -11 6 -14 17 -10 34 3 13 2 24 -4 24 -5 0 -12 9 -15 21 -3 12 -10 18 -16
14 -6 -3 -11 0 -12 7 0 7 -4 35 -8 62 -6 36 -4 56 7 80 l16 31 13 -32 c7 -17
17 -34 23 -38z m697 -1101 l64 7 -21 -21 c-11 -11 -27 -20 -35 -20 -8 0 -15
-4 -15 -9 0 -18 17 -20 36 -6 24 19 31 18 38 -1 3 -9 2 -12 -5 -9 -6 4 -13 -3
-16 -15 -4 -16 -12 -21 -29 -17 -15 3 -24 -1 -27 -13 -3 -12 -13 -16 -43 -13
-35 3 -37 2 -16 -9 23 -11 40 -53 27 -66 -3 -4 -11 1 -16 11 -6 9 -16 17 -24
17 -8 0 -18 20 -24 51 -6 28 -16 60 -22 71 -15 28 17 60 45 46 11 -6 46 -8 83
-4z"/>
<path d="M1861 1422 c-1 -7 5 -21 11 -32 10 -16 10 -22 -5 -32 -9 -7 -19 -24
-22 -36 -3 -19 -1 -22 13 -17 49 21 58 18 87 -31 18 -31 24 -49 17 -52 -7 -2
-10 -8 -7 -13 4 -5 -1 -6 -9 -3 -12 4 -16 0 -16 -15 0 -21 1 -21 22 -7 28 20
58 21 58 2 0 -7 7 -19 15 -26 9 -7 14 -19 11 -26 -2 -6 5 -15 17 -18 21 -5 21
-6 -6 -34 l-27 -28 50 -1 c54 0 66 -6 72 -38 1 -10 23 -33 48 -50 25 -17 44
-36 43 -43 -3 -15 34 -35 52 -28 9 3 12 0 8 -10 -3 -7 0 -14 6 -14 6 0 11 5
11 12 0 6 2 9 5 6 12 -12 -9 -39 -26 -35 -11 3 -19 1 -19 -4 0 -5 12 -9 26 -9
14 0 23 -4 20 -8 -2 -4 4 -8 15 -8 12 0 19 7 19 18 0 10 -4 18 -8 18 -5 0 -9
7 -9 14 0 23 44 34 137 35 121 0 279 33 321 68 8 6 37 16 65 23 33 8 68 27 95
51 24 21 61 53 82 71 21 18 59 60 85 93 25 33 50 62 54 63 5 2 6 8 2 13 -3 5
-51 -30 -107 -79 -109 -95 -157 -127 -209 -143 -124 -38 -149 -42 -278 -42
-188 -1 -278 26 -430 126 -74 49 -166 136 -247 232 -23 28 -42 44 -42 37z"/>
<path d="M2783 760 c4 -15 0 -20 -15 -20 -10 0 -17 -4 -14 -9 3 -5 -6 -12 -21
-16 -21 -5 -24 -8 -13 -15 11 -7 7 -12 -19 -23 -26 -11 -30 -17 -20 -23 8 -5
14 -18 14 -29 0 -14 8 -21 28 -23 19 -2 27 1 27 12 0 9 5 16 10 16 6 0 10 5
10 11 0 6 -8 9 -19 6 -14 -3 -17 0 -14 14 7 26 17 31 37 16 14 -10 15 -18 6
-41 -13 -34 -4 -48 15 -23 10 14 14 15 18 3 3 -7 -3 -23 -14 -34 -18 -21 -18
-21 19 -15 34 6 36 5 23 -11 -8 -9 -12 -17 -10 -19 2 -1 13 -7 23 -13 11 -6
25 -26 31 -44 9 -27 19 -36 43 -41 42 -9 64 -28 57 -50 -3 -9 -1 -20 5 -24 16
-10 2 -24 -19 -18 -10 2 -23 15 -29 28 -10 21 -14 22 -36 12 -32 -15 -36 -56
-6 -64 12 -3 20 -14 20 -27 0 -19 5 -21 40 -18 26 3 40 9 40 18 0 8 8 18 18
21 9 4 20 11 24 17 4 6 16 1 30 -12 13 -12 33 -29 46 -39 23 -18 23 -19 6 -50
-10 -17 -16 -34 -13 -38 11 -10 38 6 44 26 8 25 29 25 22 -1 -3 -10 1 -24 9
-31 8 -6 14 -18 14 -25 0 -18 9 -18 31 2 22 20 49 12 49 -14 0 -32 19 -42 54
-27 33 14 67 6 110 -28 18 -13 22 -13 38 8 24 30 23 37 -7 59 -13 10 -22 22
-20 26 7 11 -25 23 -53 21 -18 -2 -22 2 -20 16 2 14 -2 17 -25 15 -24 -3 -43
12 -135 104 -59 58 -122 118 -139 132 -36 27 -43 52 -14 52 14 0 17 6 14 25
-8 38 -29 51 -51 32 -14 -13 -21 -14 -30 -5 -18 18 -15 42 6 55 11 7 19 24 20
42 1 28 -1 30 -21 18 -12 -7 -26 -18 -30 -25 -6 -9 -21 0 -53 34 -42 42 -48
45 -81 39 -29 -5 -35 -4 -30 8 3 9 -1 18 -9 21 -24 9 -27 7 -21 -14z"/>
<path d="M2532 570 c2 -17 -5 -27 -29 -40 -24 -12 -29 -20 -21 -28 12 -12 17
-40 21 -116 1 -29 7 -51 15 -53 6 -3 12 2 12 11 0 9 5 16 10 16 6 0 10 -4 10
-10 0 -18 22 -10 66 23 38 28 43 37 44 71 0 33 -6 45 -39 75 -21 20 -40 41
-42 47 -2 6 -14 15 -27 19 -20 6 -23 4 -20 -15z"/>
<path d="M3327 533 c-14 -14 -6 -32 16 -35 30 -4 35 -43 7 -58 -18 -10 -24 -8
-35 7 -13 17 -14 16 -8 -5 5 -22 4 -23 -15 -11 -32 20 -46 1 -29 -40 8 -18 18
-32 23 -31 28 3 44 -10 44 -37 0 -15 4 -33 8 -39 9 -14 45 -27 37 -14 -3 6 3
10 15 10 12 0 36 14 53 32 18 18 38 31 45 30 8 -2 11 8 10 30 -3 37 -28 57
-70 58 -28 0 -33 9 -28 53 3 29 -55 69 -73 50z"/>
<path d="M2783 513 c-20 -3 -33 -10 -33 -19 0 -8 -7 -14 -15 -14 -13 0 -15
-10 -11 -56 5 -63 -10 -177 -25 -182 -5 -2 -9 -11 -9 -19 0 -11 -6 -14 -22 -9
-40 12 -53 11 -53 -4 0 -44 100 -7 110 41 6 26 35 42 35 20 0 -5 9 -11 20 -14
34 -9 27 47 -10 80 -32 28 -40 63 -15 63 8 0 15 4 15 8 0 5 16 15 36 22 32 13
35 17 30 43 -3 16 -6 33 -6 38 0 5 -3 8 -7 7 -5 0 -23 -3 -40 -5z"/>
</g>
</svg>
